<?xml version="1.0" encoding="UTF-8" standalone="no"?>
<svg width="449px" height="520px" viewBox="0 0 449 520" version="1.1" xmlns="http://www.w3.org/2000/svg" xmlns:xlink="http://www.w3.org/1999/xlink" xmlns:sketch="http://www.bohemiancoding.com/sketch/ns">
    <!-- Generator: Sketch 3.2.2 (9983) - http://www.bohemiancoding.com/sketch -->
    <title>match</title>
    <desc>Created with Sketch.</desc>
    <defs></defs>
    <g id="Page-1" stroke="none" stroke-width="1" fill="none" fill-rule="evenodd" sketch:type="MSPage">
        <g id="match" sketch:type="MSArtboardGroup">
            <rect id="count" stroke="#979797" fill="#D8D8D8" sketch:type="MSShapeGroup" x="59" y="477" width="15" height="15" rx="3"></rect>
            <g id="group-+-$group" sketch:type="MSLayerGroup" transform="translate(49.000000, 372.000000)">
                <rect id="group" stroke="#979797" fill="#D8D8D8" sketch:type="MSShapeGroup" x="0" y="0" width="135" height="89" rx="5"></rect>
                <text id="$group" sketch:type="MSTextLayer" font-family="American Typewriter" font-size="30" font-weight="normal" fill="#515357">
                    <tspan x="10" y="54">$group</tspan>
                </text>
            </g>
            <g id="matched" sketch:type="MSLayerGroup" transform="translate(59.000000, 262.000000)" stroke="#979797" fill="#D8D8D8">
                <rect id="Rectangle-19" opacity="0.424323694" sketch:type="MSShapeGroup" x="100" y="75" width="15" height="15" rx="3"></rect>
                <rect id="Rectangle-18" opacity="0.424323694" sketch:type="MSShapeGroup" x="75" y="75" width="15" height="15" rx="3"></rect>
                <rect id="Rectangle-17" opacity="0.424323694" sketch:type="MSShapeGroup" x="50" y="75" width="15" height="15" rx="3"></rect>
                <rect id="Rectangle-16" opacity="0.424323694" sketch:type="MSShapeGroup" x="25" y="75" width="15" height="15" rx="3"></rect>
                <rect id="Rectangle-15" sketch:type="MSShapeGroup" x="0" y="75" width="15" height="15" rx="3"></rect>
                <rect id="Rectangle-14" sketch:type="MSShapeGroup" x="100" y="50" width="15" height="15" rx="3"></rect>
                <rect id="Rectangle-13" sketch:type="MSShapeGroup" x="75" y="50" width="15" height="15" rx="3"></rect>
                <rect id="Rectangle-12" sketch:type="MSShapeGroup" x="50" y="50" width="15" height="15" rx="3"></rect>
                <rect id="Rectangle-11" opacity="0.42" sketch:type="MSShapeGroup" x="25" y="50" width="15" height="15" rx="3"></rect>
                <rect id="Rectangle-10" opacity="0.42" sketch:type="MSShapeGroup" x="0" y="50" width="15" height="15" rx="3"></rect>
                <rect id="Rectangle-9" opacity="0.42" sketch:type="MSShapeGroup" x="100" y="25" width="15" height="15" rx="3"></rect>
                <rect id="Rectangle-8" opacity="0.42" sketch:type="MSShapeGroup" x="75" y="25" width="15" height="15" rx="3"></rect>
                <rect id="Rectangle-7" sketch:type="MSShapeGroup" x="50" y="25" width="15" height="15" rx="3"></rect>
                <rect id="Rectangle-6" sketch:type="MSShapeGroup" x="25" y="25" width="15" height="15" rx="3"></rect>
                <rect id="Rectangle-5" opacity="0.424323694" sketch:type="MSShapeGroup" x="0" y="25" width="15" height="15" rx="3"></rect>
                <rect id="Rectangle-4" sketch:type="MSShapeGroup" x="100" y="0" width="15" height="15" rx="3"></rect>
                <rect id="Rectangle-3" sketch:type="MSShapeGroup" x="75" y="0" width="15" height="15" rx="3"></rect>
                <rect id="Rectangle-2" opacity="0.424323694" sketch:type="MSShapeGroup" x="50" y="0" width="15" height="15" rx="3"></rect>
                <rect id="Rectangle-20" sketch:type="MSShapeGroup" x="25" y="0" width="15" height="15" rx="3"></rect>
                <rect id="Rectangle-1" sketch:type="MSShapeGroup" x="0" y="0" width="15" height="15" rx="3"></rect>
            </g>
            <g id="match-+-$match" sketch:type="MSLayerGroup" transform="translate(49.000000, 153.000000)">
                <rect id="match" stroke="#979797" fill="#D8D8D8" sketch:type="MSShapeGroup" x="0" y="0" width="135" height="89" rx="5"></rect>
                <text id="$match" sketch:type="MSTextLayer" font-family="American Typewriter" font-size="30" font-weight="normal" fill="#515357">
                    <tspan x="10" y="54">$match</tspan>
                </text>
            </g>
            <g id="docs" sketch:type="MSLayerGroup" transform="translate(59.000000, 42.000000)" stroke="#979797" fill="#D8D8D8">
                <rect id="Rectangle-19" sketch:type="MSShapeGroup" x="100" y="75" width="15" height="15" rx="3"></rect>
                <rect id="Rectangle-18" sketch:type="MSShapeGroup" x="75" y="75" width="15" height="15" rx="3"></rect>
                <rect id="Rectangle-17" sketch:type="MSShapeGroup" x="50" y="75" width="15" height="15" rx="3"></rect>
                <rect id="Rectangle-16" sketch:type="MSShapeGroup" x="25" y="75" width="15" height="15" rx="3"></rect>
                <rect id="Rectangle-15" sketch:type="MSShapeGroup" x="0" y="75" width="15" height="15" rx="3"></rect>
                <rect id="Rectangle-14" sketch:type="MSShapeGroup" x="100" y="50" width="15" height="15" rx="3"></rect>
                <rect id="Rectangle-13" sketch:type="MSShapeGroup" x="75" y="50" width="15" height="15" rx="3"></rect>
                <rect id="Rectangle-12" sketch:type="MSShapeGroup" x="50" y="50" width="15" height="15" rx="3"></rect>
                <rect id="Rectangle-11" sketch:type="MSShapeGroup" x="25" y="50" width="15" height="15" rx="3"></rect>
                <rect id="Rectangle-10" sketch:type="MSShapeGroup" x="0" y="50" width="15" height="15" rx="3"></rect>
                <rect id="Rectangle-9" sketch:type="MSShapeGroup" x="100" y="25" width="15" height="15" rx="3"></rect>
                <rect id="Rectangle-8" sketch:type="MSShapeGroup" x="75" y="25" width="15" height="15" rx="3"></rect>
                <rect id="Rectangle-7" sketch:type="MSShapeGroup" x="50" y="25" width="15" height="15" rx="3"></rect>
                <rect id="Rectangle-6" sketch:type="MSShapeGroup" x="25" y="25" width="15" height="15" rx="3"></rect>
                <rect id="Rectangle-5" sketch:type="MSShapeGroup" x="0" y="25" width="15" height="15" rx="3"></rect>
                <rect id="Rectangle-4" sketch:type="MSShapeGroup" x="100" y="0" width="15" height="15" rx="3"></rect>
                <rect id="Rectangle-3" sketch:type="MSShapeGroup" x="75" y="0" width="15" height="15" rx="3"></rect>
                <rect id="Rectangle-2" sketch:type="MSShapeGroup" x="50" y="0" width="15" height="15" rx="3"></rect>
                <rect id="Rectangle-20" sketch:type="MSShapeGroup" x="25" y="0" width="15" height="15" rx="3"></rect>
                <rect id="Rectangle-1" sketch:type="MSShapeGroup" x="0" y="0" width="15" height="15" rx="3"></rect>
            </g>
            <text id="input-documents" sketch:type="MSTextLayer" font-family="American Typewriter" font-size="18" font-weight="normal" fill="#515357">
                <tspan x="204" y="60">input documents</tspan>
            </text>
            <text id="filtered-documents" sketch:type="MSTextLayer" font-family="American Typewriter" font-size="18" font-weight="normal" fill="#515357">
                <tspan x="204" y="279">filtered documents</tspan>
            </text>
            <text id="{-$match:-{" sketch:type="MSTextLayer" font-family="American Typewriter" font-size="14" font-weight="normal" fill="#515357">
                <tspan x="204" y="186">{ $match: {</tspan>
                <tspan x="204" y="203">  city: “San Francisco”</tspan>
                <tspan x="204" y="220">}}</tspan>
            </text>
            <text id="{-$group:-{" sketch:type="MSTextLayer" font-family="American Typewriter" font-size="14" font-weight="normal" fill="#515357">
                <tspan x="204" y="398">{ $group: {</tspan>
                <tspan x="204" y="415">  _id: “$city”,</tspan>
                <tspan x="204" y="432">  count: {$sum: 1}</tspan>
                <tspan x="204" y="449">}}</tspan>
            </text>
            <text id="count:-10" sketch:type="MSTextLayer" font-family="American Typewriter" font-size="18" font-weight="normal" fill="#515357">
                <tspan x="204" y="487">count: 10</tspan>
            </text>
        </g>
    </g>
</svg>